<mxfile host="app.diagrams.net" modified="2023-11-15T09:51:49.458Z" agent="Mozilla/5.0 (Macintosh; Intel Mac OS X 10_15_7) AppleWebKit/537.36 (KHTML, like Gecko) Chrome/117.0.0.0 Safari/537.36" etag="3JvNj2J1H7uT-692clGV" version="22.0.8" type="device">
  <diagram name="Page-1" id="4GNv6cIebouyW5DHGNJP">
    <mxGraphModel dx="2261" dy="797" grid="1" gridSize="10" guides="1" tooltips="1" connect="1" arrows="1" fold="1" page="1" pageScale="1" pageWidth="827" pageHeight="1169" math="0" shadow="0">
      <root>
        <mxCell id="0" />
        <mxCell id="1" parent="0" />
        <mxCell id="PnGjP-H9tmNRagLO0WRX-4" value="" style="endArrow=none;html=1;rounded=1;strokeWidth=2;strokeColor=#24B064;exitX=1;exitY=0.75;exitDx=0;exitDy=0;entryX=1;entryY=0.5;entryDx=0;entryDy=0;" edge="1" parent="1" target="PnGjP-H9tmNRagLO0WRX-30">
          <mxGeometry width="50" height="50" relative="1" as="geometry">
            <mxPoint x="-680" y="200" as="sourcePoint" />
            <mxPoint x="-140" y="200" as="targetPoint" />
          </mxGeometry>
        </mxCell>
        <mxCell id="PnGjP-H9tmNRagLO0WRX-5" value="" style="ellipse;whiteSpace=wrap;html=1;aspect=fixed;rounded=1;rotation=0;strokeWidth=2;" vertex="1" parent="1">
          <mxGeometry x="-540" y="190" width="20" height="20" as="geometry" />
        </mxCell>
        <mxCell id="PnGjP-H9tmNRagLO0WRX-16" value="" style="ellipse;whiteSpace=wrap;html=1;aspect=fixed;rounded=1;rotation=0;strokeWidth=2;" vertex="1" parent="1">
          <mxGeometry x="-383" y="189" width="20" height="20" as="geometry" />
        </mxCell>
        <mxCell id="PnGjP-H9tmNRagLO0WRX-20" value="concatenate reads" style="text;html=1;strokeColor=none;fillColor=none;align=center;verticalAlign=middle;whiteSpace=wrap;rounded=0;" vertex="1" parent="1">
          <mxGeometry x="-560" y="150" width="60" height="30" as="geometry" />
        </mxCell>
        <mxCell id="PnGjP-H9tmNRagLO0WRX-21" value="FastK FastK" style="text;html=1;strokeColor=none;fillColor=none;align=center;verticalAlign=middle;whiteSpace=wrap;rounded=0;" vertex="1" parent="1">
          <mxGeometry x="-401" y="150" width="60" height="30" as="geometry" />
        </mxCell>
        <mxCell id="PnGjP-H9tmNRagLO0WRX-27" value="FastK Histex" style="text;html=1;strokeColor=none;fillColor=none;align=center;verticalAlign=middle;whiteSpace=wrap;rounded=0;" vertex="1" parent="1">
          <mxGeometry x="-236" y="150" width="60" height="30" as="geometry" />
        </mxCell>
        <mxCell id="PnGjP-H9tmNRagLO0WRX-28" value="Genescopefk" style="text;html=1;strokeColor=none;fillColor=none;align=center;verticalAlign=middle;whiteSpace=wrap;rounded=0;" vertex="1" parent="1">
          <mxGeometry x="-237" y="240" width="60" height="30" as="geometry" />
        </mxCell>
        <mxCell id="PnGjP-H9tmNRagLO0WRX-30" value="" style="ellipse;whiteSpace=wrap;html=1;aspect=fixed;rounded=1;rotation=0;strokeWidth=2;" vertex="1" parent="1">
          <mxGeometry x="-217" y="190" width="20" height="20" as="geometry" />
        </mxCell>
        <mxCell id="PnGjP-H9tmNRagLO0WRX-31" value="" style="endArrow=none;html=1;rounded=1;strokeWidth=2;strokeColor=#24B064;" edge="1" parent="1" source="PnGjP-H9tmNRagLO0WRX-34">
          <mxGeometry width="50" height="50" relative="1" as="geometry">
            <mxPoint x="-340" y="280" as="sourcePoint" />
            <mxPoint x="-200" y="280" as="targetPoint" />
          </mxGeometry>
        </mxCell>
        <mxCell id="PnGjP-H9tmNRagLO0WRX-32" value="" style="endArrow=none;html=1;rounded=1;strokeWidth=2;strokeColor=#24B064;" edge="1" parent="1">
          <mxGeometry width="50" height="50" relative="1" as="geometry">
            <mxPoint x="-331" y="280" as="sourcePoint" />
            <mxPoint x="-371" y="240" as="targetPoint" />
            <Array as="points">
              <mxPoint x="-351" y="280" />
              <mxPoint x="-371" y="260" />
            </Array>
          </mxGeometry>
        </mxCell>
        <mxCell id="PnGjP-H9tmNRagLO0WRX-33" value="" style="endArrow=none;html=1;rounded=1;strokeWidth=2;strokeColor=#24B064;" edge="1" parent="1">
          <mxGeometry width="50" height="50" relative="1" as="geometry">
            <mxPoint x="-371.5" y="249" as="sourcePoint" />
            <mxPoint x="-371.5" y="209" as="targetPoint" />
          </mxGeometry>
        </mxCell>
        <mxCell id="PnGjP-H9tmNRagLO0WRX-35" value="" style="endArrow=none;html=1;rounded=1;strokeWidth=2;strokeColor=#24B064;" edge="1" parent="1" target="PnGjP-H9tmNRagLO0WRX-34">
          <mxGeometry width="50" height="50" relative="1" as="geometry">
            <mxPoint x="-340" y="280" as="sourcePoint" />
            <mxPoint x="-200" y="280" as="targetPoint" />
          </mxGeometry>
        </mxCell>
        <mxCell id="PnGjP-H9tmNRagLO0WRX-34" value="" style="ellipse;whiteSpace=wrap;html=1;aspect=fixed;rounded=1;rotation=0;strokeWidth=2;" vertex="1" parent="1">
          <mxGeometry x="-216" y="270" width="20" height="20" as="geometry" />
        </mxCell>
        <mxCell id="PnGjP-H9tmNRagLO0WRX-36" value="" style="group;aspect=fixed;" vertex="1" connectable="0" parent="1">
          <mxGeometry x="-750" y="160" width="70" height="80" as="geometry" />
        </mxCell>
        <mxCell id="PnGjP-H9tmNRagLO0WRX-37" value="" style="shape=note;whiteSpace=wrap;html=1;backgroundOutline=1;darkOpacity=0.05;rounded=1;size=20;strokeWidth=2;" vertex="1" parent="PnGjP-H9tmNRagLO0WRX-36">
          <mxGeometry x="3.888888888888889" width="62.22222222222222" height="80" as="geometry" />
        </mxCell>
        <mxCell id="PnGjP-H9tmNRagLO0WRX-38" value="&lt;font data-font-src=&quot;https://fonts.googleapis.com/css?family=Maven+Pro&quot; face=&quot;Maven Pro&quot; color=&quot;#ffffff&quot;&gt;&lt;b&gt;&lt;font style=&quot;font-size: 20px;&quot;&gt;Fasta&lt;/font&gt;&lt;/b&gt;&lt;/font&gt;" style="rounded=1;whiteSpace=wrap;html=1;strokeWidth=2;fillColor=#000000;" vertex="1" parent="PnGjP-H9tmNRagLO0WRX-36">
          <mxGeometry y="32" width="70" height="32" as="geometry" />
        </mxCell>
      </root>
    </mxGraphModel>
  </diagram>
</mxfile>
